HIERARCHY
ROOT Hips
{
	OFFSET 0.00000 0.00000 0.00000
	CHANNELS 6 Xposition Yposition Zposition Zrotation Yrotation Xrotation 
	JOINT LHipJoint
	{
		OFFSET 0 0 0
		CHANNELS 3 Zrotation Yrotation Xrotation
		JOINT LeftUpLeg
		{
			OFFSET 1.41261 -1.82971 0.84908
			CHANNELS 3 Zrotation Yrotation Xrotation
			JOINT LeftLeg
			{
				OFFSET 2.52554 -6.93888 0.00000
				CHANNELS 3 Zrotation Yrotation Xrotation
				JOINT LeftFoot
				{
					OFFSET 2.56654 -7.05152 0.00000
					CHANNELS 3 Zrotation Yrotation Xrotation
					JOINT LeftToeBase
					{
						OFFSET 0.21698 -0.59616 1.85369
						CHANNELS 3 Zrotation Yrotation Xrotation
						End Site
						{
							OFFSET 0.00000 -0.00000 0.97832
						}
					}
				}
			}
		}
	}
	JOINT RHipJoint
	{
		OFFSET 0 0 0
		CHANNELS 3 Zrotation Yrotation Xrotation
		JOINT RightUpLeg
		{
			OFFSET -1.12808 -1.82971 0.84907
			CHANNELS 3 Zrotation Yrotation Xrotation
			JOINT RightLeg
			{
				OFFSET -2.53425 -6.96280 0.00000
				CHANNELS 3 Zrotation Yrotation Xrotation
				JOINT RightFoot
				{
					OFFSET -2.58413 -7.09983 0.00000
					CHANNELS 3 Zrotation Yrotation Xrotation
					JOINT RightToeBase
					{
						OFFSET -0.26437 -0.72636 1.92241
						CHANNELS 3 Zrotation Yrotation Xrotation
						End Site
						{
							OFFSET -0.00000 -0.00000 1.02667
						}
					}
				}
			}
		}
	}
	JOINT LowerBack
	{
		OFFSET 0 0 0
		CHANNELS 3 Zrotation Yrotation Xrotation
		JOINT Spine
		{
			OFFSET -0.02096 2.02288 -0.14752
			CHANNELS 3 Zrotation Yrotation Xrotation
			JOINT Spine1
			{
				OFFSET 0.03477 2.03136 -0.02358
				CHANNELS 3 Zrotation Yrotation Xrotation
				JOINT Neck
				{
					OFFSET 0 0 0
					CHANNELS 3 Zrotation Yrotation Xrotation
					JOINT Neck1
					{
						OFFSET 0.00174 1.74359 0.19336
						CHANNELS 3 Zrotation Yrotation Xrotation
						JOINT Head
						{
							OFFSET -0.03054 1.76140 -0.17751
							CHANNELS 3 Zrotation Yrotation Xrotation
							End Site
							{
								OFFSET -0.00863 1.77239 -0.08120
							}
						}
					}
				}
				JOINT LeftShoulder
				{
					OFFSET 0 0 0
					CHANNELS 3 Zrotation Yrotation Xrotation
					JOINT LeftArm
					{
						OFFSET 3.68685 1.32687 -0.67367
						CHANNELS 3 Zrotation Yrotation Xrotation
						JOINT LeftForeArm
						{
							OFFSET 4.76468 -0.00000 -0.00000
							CHANNELS 3 Zrotation Yrotation Xrotation
							JOINT LeftHand
							{
								OFFSET 3.52712 -0.00000 -0.00000
								CHANNELS 3 Zrotation Yrotation Xrotation
								JOINT LeftFingerBase
								{
									OFFSET 0 0 0
									CHANNELS 3 Zrotation Yrotation Xrotation
									JOINT LeftHandIndex1
									{
										OFFSET 0.85956 -0.00000 -0.00000
										CHANNELS 3 Zrotation Yrotation Xrotation
										End Site
										{
											OFFSET 0.69300 -0.00000 -0.00000
										}
									}
								}
								JOINT LThumb
								{
									OFFSET 0 0 0
									CHANNELS 3 Zrotation Yrotation Xrotation
									End Site
									{
										OFFSET 0.70358 -0.00000 0.70358
									}
								}
							}
						}
					}
				}
				JOINT RightShoulder
				{
					OFFSET 0 0 0
					CHANNELS 3 Zrotation Yrotation Xrotation
					JOINT RightArm
					{
						OFFSET -3.31304 1.28268 -0.97357
						CHANNELS 3 Zrotation Yrotation Xrotation
						JOINT RightForeArm
						{
							OFFSET -4.90577 -0.00000 -0.00000
							CHANNELS 3 Zrotation Yrotation Xrotation
							JOINT RightHand
							{
								OFFSET -3.42692 -0.00000 0.00000
								CHANNELS 3 Zrotation Yrotation Xrotation
								JOINT RightFingerBase
								{
									OFFSET 0 0 0
									CHANNELS 3 Zrotation Yrotation Xrotation
									JOINT RightHandIndex1
									{
										OFFSET -0.74096 -0.00000 -0.00000
										CHANNELS 3 Zrotation Yrotation Xrotation
										End Site
										{
											OFFSET -0.59738 -0.00000 -0.00000
										}
									}
								}
								JOINT RThumb
								{
									OFFSET 0 0 0
									CHANNELS 3 Zrotation Yrotation Xrotation
									End Site
									{
										OFFSET -0.60650 -0.00000 0.60650
									}
								}
							}
						}
					}
				}
			}
		}
	}
}
MOTION
Frames: 15
Frame Time: 0.0555556
0.00 0.00 0.00 0 0 0 0 0 0 -21 0 0 0 0 0 0 0 0 0 0 0 0 0 0 21 0 0 0 0 0 0 0 0 0 0 0 0 0 0 0 0 0 0 0 0 0 0 -16 0 0 21 0 0 11 0 0 0 -8 0 0 0 0 0 0 0 0 0 0 0 0 0 0 0 0 0 0 0 0 8 0 0 0 0 0 0 0 0 0 0 0 0 0 0 0 0 0
0.00 0.00 0.00 -2.7435 34.5052 4.1516 0.0000 0.0000 0.0000 -15.6601 -1.2336 -5.0119 1.1547 6.8224 19.1904 1.1692 -0.4794 -20.2947 1.4569 -7.6290 -21.5927 0.0000 0.0000 0.0000 23.6675 -0.6534 -6.7468 -1.0870 -6.6261 18.6123 -1.8566 8.0287 -24.4355 -0.5463 -4.7354 13.1554 -2.0329 -1.0398 8.3841 3.4829 -1.4087 0.5814 4.9437 -0.6286 -3.9629 -2.2443 -1.5704 -6.6649 -0.8446 -1.7258 11.8713 0.0048 -0.9839 4.6673 -0.0000 0.0000 0.0000 -96.9923 2.3314 4.2406 22.5694 -33.6146 -6.8984 -0.0000 -0.0000 18.4276 0.5222 -19.3759 -0.1732 -7.1250 0.0000 -0.0000 -17.8227 11.2794 14.7427 -0.0000 0.0000 0.0000 88.0697 3.3534 1.3855 -9.1727 15.4353 -1.2457 0.0000 0.0000 11.4470 -10.4262 -35.0380 6.0305 7.1250 -0.0000 -0.0000 28.0852 -63.2987 -12.9878
0.00 0.00 0.00 -4.7647 33.4412 3.6249 0.0000 0.0000 0.0000 -13.1374 -2.2075 -13.1226 3.5580 11.5478 34.1504 1.1476 -0.2526 -20.1771 2.0744 -9.0195 -25.8562 0.0000 0.0000 0.0000 25.7432 -1.0024 -6.8137 -1.2220 -7.0115 19.7494 -2.0948 9.0908 -25.9855 -0.3625 -3.8679 10.7053 -0.0609 -1.0408 9.5063 4.2513 -1.1604 0.8651 4.6311 -0.5250 -4.3440 -1.4839 -0.4874 -6.9292 -1.2668 -0.3163 10.7132 -0.1854 -0.2762 4.8221 0.0000 0.0000 0.0000 -96.7679 1.5847 10.4432 26.5726 -37.7685 -9.2361 -0.0000 -0.0000 16.2652 2.4054 -19.1745 -0.7905 -7.1250 0.0000 -0.0000 -16.6547 11.3795 13.6454 0.0000 0.0000 0.0000 87.9189 4.3044 4.3749 -9.6277 16.1551 -1.3695 0.0000 0.0000 11.1256 -10.2932 -35.6960 6.0488 7.1250 -0.0000 -0.0000 28.9582 -63.8286 -13.7839
0.00 0.00 0.00 -8.8355 35.3434 7.9571 0.0000 0.0000 0.0000 -2.8967 -12.9699 -45.5772 1.9273 8.7129 24.9013 0.2755 -3.9207 -9.3406 3.1581 -10.9467 -32.1003 0.0000 0.0000 0.0000 32.7984 1.3553 2.6167 -0.9319 -6.1495 17.2188 -3.1126 1.1921 -33.1375 -0.7337 -5.4726 15.2614 5.7896 -0.0018 14.3019 5.3919 1.2959 2.4212 2.1932 0.6091 -5.4634 -0.9148 0.1197 -8.0996 -2.9167 0.4439 4.1164 -0.7600 0.1033 2.7316 0.0000 0.0000 0.0000 -97.7497 6.4570 19.6492 25.3373 -36.5468 -8.4900 -0.0000 -0.0000 4.6115 12.0187 -19.7144 -4.1077 -7.1250 0.0000 -0.0000 -10.5212 10.1231 8.6593 0.0000 0.0000 0.0000 88.2982 6.8559 38.1378 -20.4338 31.1615 -5.7542 0.0000 0.0000 0.3066 -4.8194 -41.8829 3.2217 7.1250 -0.0000 -0.0000 43.3000 -67.1228 -24.9062
0.00 0.00 0.00 -8.0848 32.8482 13.7006 0.0000 0.0000 0.0000 -1.9546 -13.7751 -55.2194 4.7378 13.0822 39.6771 0.2892 -7.6835 -10.2583 2.3194 -9.5019 -27.3785 0.0000 0.0000 0.0000 29.5993 -0.4955 6.3236 -0.9224 -6.1189 17.1299 -2.4629 5.0035 -28.5849 -0.0735 -1.7486 4.8113 5.5622 1.7382 14.6067 3.9347 3.4971 1.8032 0.3471 1.6370 -6.1959 -1.2913 -0.0512 -9.0284 -2.3342 0.1914 1.8097 -0.5109 0.0186 2.1234 0.0000 -0.0000 0.0000 -95.7220 17.7317 23.0727 32.6837 -43.0855 -13.2055 -0.0000 0.0000 -3.0149 15.8385 -22.1576 -6.1073 -7.1250 0.0000 -0.0000 -8.1770 7.2296 7.1581 0.0000 -0.0000 0.0000 87.2285 5.7607 45.9731 -31.3910 42.0562 -12.3309 0.0000 -0.0000 -1.2280 -3.9859 -41.2060 2.6282 7.1250 -0.0000 -0.0000 42.9840 -66.3903 -24.0066
0.00 0.00 0.00 -4.3457 31.1233 18.1615 0.0000 0.0000 0.0000 -7.0981 -16.1770 -52.8409 6.0726 14.4983 45.2723 0.8142 -6.8070 -16.1131 2.0977 -9.0667 -26.0041 0.0000 0.0000 0.0000 22.7180 -0.6666 2.3414 -2.4690 -9.7813 28.2713 -0.5577 6.0487 -13.3437 -0.0102 0.6521 -1.7921 3.1265 2.5263 15.0380 2.0553 4.0167 1.7653 -0.3997 1.9106 -6.4808 -1.6317 -0.3789 -9.8942 -1.7382 -0.2400 -0.2264 -0.2789 -0.1555 1.6050 0.0000 0.0000 0.0000 -96.0556 22.9866 22.9429 39.2666 -47.6293 -17.8955 -0.0000 0.0000 -8.9060 17.7986 -21.1796 -6.6161 -7.1250 0.0000 -0.0000 -6.8808 7.9670 5.9046 0.0000 0.0000 0.0000 86.8555 3.1324 46.0748 -36.2504 45.6846 -15.7014 0.0000 -0.0000 -4.6070 -7.3522 -40.1108 4.7520 7.1250 -0.0000 -0.0000 37.9038 -66.5805 -20.9599
0.00 0.00 0.00 -3.0672 30.1410 18.7321 0.0000 0.0000 0.0000 -11.1297 -15.6148 -46.9687 6.5480 14.9392 47.1435 1.4307 -8.3058 -21.4054 1.3537 -7.3652 -20.8018 0.0000 0.0000 0.0000 19.5035 2.0984 -5.0989 -5.9317 -14.3618 44.7068 -0.0333 2.0202 4.7964 -0.0356 1.2182 -3.3494 1.6629 2.6271 16.7537 1.4379 3.8959 2.1780 -0.2814 1.8715 -7.0372 -1.5649 -0.2079 -10.4019 -1.4969 -0.0266 -1.6133 -0.2039 -0.0237 1.2423 -0.0000 -0.0000 0.0000 -97.2990 24.9752 22.1294 42.2846 -49.3667 -20.1563 -0.0000 0.0000 -11.4395 19.5492 -22.7935 -7.8327 -7.1250 0.0000 -0.0000 -5.8925 6.0530 5.2669 -0.0000 -0.0000 0.0000 86.1993 1.2664 45.0672 -37.3297 46.4058 -16.4784 0.0000 -0.0000 -4.2255 -8.0421 -39.0832 5.0903 7.1250 -0.0000 -0.0000 35.6661 -65.9861 -19.1092
0.00 0.00 0.00 2.2395 30.6389 20.6630 0.0000 0.0000 0.0000 -19.1228 -15.5576 -40.2772 6.9402 15.2813 48.6477 2.0715 -11.0494 -25.9037 0.9745 -6.2844 -17.6120 0.0000 0.0000 0.0000 14.0289 1.8563 -17.0972 -11.6521 -18.2397 64.8817 0.0210 -3.2691 0.9602 -1.4341 -7.5716 21.4203 -3.2789 2.0106 18.6937 0.4540 2.0609 2.6419 1.8368 1.1093 -7.7453 -1.2868 0.1464 -10.5214 -0.9436 0.4000 -3.4358 -0.0625 0.2234 0.6759 0.0000 -0.0000 0.0000 -97.7081 25.5403 23.0271 45.2511 -50.8909 -22.4334 -0.0000 0.0000 -14.3732 19.7468 -21.4290 -7.4717 -7.1250 0.0000 -0.0000 -5.6608 7.4350 4.9053 0.0000 -0.0000 0.0000 86.3394 -0.4564 42.3318 -37.0593 46.2278 -16.2828 0.0000 -0.0000 -3.1330 -9.4620 -37.9016 5.8456 7.1250 -0.0000 -0.0000 32.5524 -65.4448 -16.8779
0.00 0.00 0.00 4.3225 32.0994 21.9476 0.0000 0.0000 0.0000 -23.2670 -13.4078 -32.9899 7.5106 15.7472 50.7801 2.9907 -14.7341 -31.4173 1.0628 -6.5544 -18.4018 0.0000 0.0000 0.0000 11.6042 4.1648 -38.9822 -16.5457 -19.7115 79.8535 -0.5142 -6.7769 -17.6966 -1.8260 -8.4938 24.2243 -4.0886 0.6674 20.0602 0.0333 0.0638 2.8976 2.3479 0.1784 -8.0808 -1.1807 0.4733 -11.1886 -0.4758 0.8474 -5.9413 0.0743 0.4834 -0.0084 -0.0000 -0.0000 0.0000 -94.7096 20.7285 28.9831 43.3195 -49.9181 -20.9449 -0.0000 0.0000 -18.4677 20.0093 -22.0186 -7.7742 -7.1250 0.0000 -0.0000 -5.5409 6.7845 4.8709 -0.0000 -0.0000 0.0000 88.4129 -3.8094 35.1273 -34.7797 44.6542 -14.6583 0.0000 -0.0000 -4.3201 -14.9056 -36.8088 9.0614 7.1250 -0.0000 -0.0000 25.2607 -66.0728 -13.2100
0.00 0.00 0.00 8.0160 37.3331 21.2754 0.0000 0.0000 0.0000 -27.2293 -10.6560 -16.1692 9.5164 17.1288 57.8596 2.5546 -21.9716 -30.6188 1.2972 -7.2159 -20.3566 0.0000 0.0000 0.0000 4.2095 8.3107 -69.4869 -12.1083 -18.4361 66.3318 -0.7214 -9.2474 -21.9512 -1.4971 -7.7290 21.8938 -5.8966 -2.1768 20.6129 0.8497 -3.9149 3.8610 5.2785 -1.7189 -6.8254 0.0089 1.6118 -10.4819 -1.1788 2.2231 -8.8558 -0.3165 1.1726 -1.0077 0.0000 0.0000 0.0000 -92.5166 6.6807 34.4862 40.1863 -48.1799 -18.5780 -0.0000 0.0000 -13.1796 23.8428 -20.9115 -8.9640 -7.1250 0.0000 -0.0000 -3.0143 7.3334 2.6086 0.0000 0.0000 0.0000 86.5087 -12.6137 27.5393 -25.9439 37.1533 -8.8537 0.0000 -0.0000 -12.2712 -17.2667 -34.1560 9.8992 7.1250 -0.0000 -0.0000 19.7041 -64.3348 -9.4015
0.00 0.00 0.00 9.8172 38.6141 19.9233 0.0000 0.0000 0.0000 -28.9359 -5.4427 0.4476 6.8092 15.1691 48.1488 2.0262 -24.0482 -28.6714 1.0608 -6.5484 -18.3843 0.0000 0.0000 0.0000 1.8526 7.7433 -71.6954 -7.7237 -15.9122 51.5611 -0.1989 -6.4455 -13.1548 -1.2995 -7.2221 20.3749 -7.2516 -3.0229 18.4672 1.0500 -5.1583 3.7331 6.3831 -2.3707 -5.5147 0.0123 1.9113 -10.8468 -1.4571 2.6048 -7.6958 -0.3797 1.3493 -0.5851 -0.0000 0.0000 0.0000 -89.7015 9.5514 41.9441 59.2941 -56.1189 -33.7544 -0.0000 0.0000 -11.8721 22.7684 -21.4380 -8.7213 -7.1250 0.0000 -0.0000 -3.7471 6.9545 3.2730 -0.0000 0.0000 0.0000 84.1005 -25.3523 29.7364 -33.9177 44.0237 -14.0559 0.0000 -0.0000 -12.8165 -19.4491 -33.5455 11.0416 7.1250 -0.0000 -0.0000 16.6364 -64.3546 -7.9025
0.00 0.00 0.00 9.6538 40.7420 17.2229 0.0000 0.0000 0.0000 -26.0175 -1.1006 16.7394 3.9909 12.1483 36.2585 -0.8689 -25.6723 -11.9617 1.7087 -8.2311 -23.4181 0.0000 0.0000 0.0000 1.7181 7.4204 -67.0083 -4.2354 -12.4672 37.4054 -0.3050 -2.3988 -11.5946 -0.3906 -4.0132 11.1137 -7.3494 -4.4281 15.2339 2.0303 -6.7862 3.2909 7.4806 -3.2693 -3.8609 0.0690 2.6700 -11.1471 -2.6744 3.5797 -6.3404 -0.7198 1.8101 -0.0827 0.0000 -0.0000 0.0000 -88.7022 14.7561 45.4833 81.5160 -59.7263 -52.6594 -0.0000 0.0000 -9.1580 20.4591 -27.8172 -9.8759 -7.1250 0.0000 -0.0000 -5.8330 0.7276 5.7887 0.0000 -0.0000 0.0000 81.5498 -37.2915 30.1715 -45.3048 50.9169 -22.4751 0.0000 -0.0000 -16.5531 -16.0359 -30.8027 8.3730 7.1250 -0.0000 -0.0000 18.1665 -60.8716 -7.1619
0.00 0.00 0.00 9.9122 40.3031 15.6531 0.0000 0.0000 0.0000 -23.4486 3.3011 24.3635 2.6345 10.0785 29.2314 -1.7712 -22.8140 10.5195 3.0120 -10.7144 -31.3227 0.0000 0.0000 0.0000 2.5666 8.1137 -64.2498 -3.9410 -12.0815 36.0209 -0.2907 -2.8932 -11.6700 -0.1947 -2.8414 7.8375 -7.7993 -4.8420 13.4446 1.9643 -7.3407 2.4563 7.5881 -3.5422 -3.6356 0.3288 3.1441 -12.1956 -3.0380 4.2186 -3.4830 -0.8158 2.0706 1.0266 -0.0000 0.0000 0.0000 -88.4506 19.1278 46.3770 89.8332 -59.9999 -59.8555 -0.0000 0.0000 -9.0162 25.9651 -30.9025 -14.0418 -7.1250 0.0000 -0.0000 -3.0772 -3.6305 3.2705 -0.0000 0.0000 0.0000 82.2916 -42.8237 27.6496 -48.6214 52.4241 -25.0774 0.0000 -0.0000 -15.9902 -16.9400 -31.8353 9.1273 7.1250 -0.0000 -0.0000 17.9976 -62.0726 -7.6059
0.00 0.00 0.00 10.7128 39.3595 15.2645 0.0000 0.0000 0.0000 -24.7184 2.6126 27.6133 2.3727 9.6027 27.6994 2.4511 -11.4280 35.3779 0.2702 -3.3435 -9.2365 0.0000 0.0000 0.0000 2.2700 9.1547 -65.8696 -6.6625 -15.0410 47.5860 0.0766 -5.8163 1.2103 -0.4593 -4.3476 12.0566 -8.2301 -4.9828 13.3621 1.9112 -7.6711 1.0433 7.9128 -3.5807 -4.9933 0.4395 3.6094 -13.7296 -3.7618 4.8783 -1.7991 -0.9956 2.3400 1.8886 -0.0000 0.0000 0.0000 -90.1926 21.3912 45.4779 91.5743 -59.9906 -61.3633 -0.0000 0.0000 -9.5177 25.1020 -31.3302 -13.6902 -7.1250 0.0000 -0.0000 -3.6382 -3.8689 3.8831 -0.0000 0.0000 0.0000 84.6158 -43.5871 21.9614 -47.4222 51.9014 -24.1303 0.0000 -0.0000 -13.4472 -15.7413 -32.6372 8.6437 7.1250 -0.0000 -0.0000 19.9969 -62.5207 -8.6977
0.00 0.00 0.00 7.8305 37.1715 12.0977 0.0000 0.0000 0.0000 -24.8342 1.9219 23.9709 5.0491 13.4389 41.0344 1.5666 -6.1105 26.5308 1.8049 -8.4473 -24.0812 0.0000 0.0000 0.0000 5.1936 12.5484 -66.9736 -10.5884 -17.7277 61.4374 -0.0001 -2.8143 -4.0219 -0.7651 -5.5858 15.5872 -6.5299 -4.5468 14.2853 2.4781 -6.8591 1.0180 7.5777 -3.1634 -5.8102 0.8039 4.1973 -13.6567 -4.7287 5.5483 -4.4611 -1.3511 2.6958 1.0558 0.0000 -0.0000 0.0000 -93.6169 19.1188 42.6378 87.0502 -59.9671 -57.4456 -0.0000 0.0000 -7.2417 23.1537 -30.7548 -12.3354 -7.1250 0.0000 -0.0000 -4.6548 -2.8336 4.8951 0.0000 -0.0000 0.0000 87.0994 -37.1513 17.3637 -41.5919 48.9853 -19.6321 0.0000 -0.0000 -12.8517 -14.6361 -31.5184 7.7742 7.1250 -0.0000 -0.0000 20.2440 -61.2037 -8.1784
